# xmcd CD database file
#
# Track frame offsets:
#	187
#	13195
#	26985
#	46505
#	58347
#	75087
#	87007
#	104885
#	113122
#	132262
#	144852
#	162185
#
# Disc length: 2284 seconds
#
# Revision: 1
# Processed by: cddbd v1.4PL0 Copyright (c) Steve Scherf et al.
# Submitted via: CDex 1.50Beta7
#
DISCID=9408ea0c
DTITLE=Thelma Gracen - Night And Day
DYEAR=1900
DGENRE=Jazz
TTITLE0=I Will Remember April
TTITLE1=Night And Day
TTITLE2=I Will Never Be The Same
TTITLE3=Tea For Two
TTITLE4=I Will Get By
TTITLE5=Out Of Nowhere
TTITLE6=Solitude
TTITLE7=Just You Just Me
TTITLE8=I Am Yours
TTITLE9=People Will Say We Were In Love
TTITLE10=More Than You Know
TTITLE11=Let There Be Love
EXTD=
EXTT0=
EXTT1=
EXTT2=
EXTT3=
EXTT4=
EXTT5=
EXTT6=
EXTT7=
EXTT8=
EXTT9=
EXTT10=
EXTT11=
PLAYORDER=
